<svg xmlns="http://www.w3.org/2000/svg" width="387.495" height="387.495" viewBox="0 0 387.495 387.495"><g transform="translate(-37.477 -765.797) rotate(45)"><g transform="translate(793 290)" fill="#fff"><path d="M 49.14627838134766 447.4917907714844 C 49.11368179321289 447.4912109375 49.08112335205078 447.4906311035156 49.04858016967773 447.489990234375 L 49.00046157836914 447.4890441894531 L 48.95234298706055 447.489990234375 C 48.91984939575195 447.4906311035156 48.88733291625977 447.4912109375 48.85478591918945 447.4917907714844 L 48.0968132019043 447.4622802734375 C 42.3598747253418 447.2392272949219 36.77987289428711 445.9963073730469 31.51175498962402 443.7681274414062 C 25.85616683959961 441.376220703125 20.77610778808594 437.9509887695312 16.41257858276367 433.5874633789062 C 12.04893207550049 429.2238159179688 8.623696327209473 424.1437683105469 6.231932163238525 418.4883422851562 C 3.755578994750977 412.6337585449219 2.499990701675415 406.4132995605469 2.499990701675415 399.9996032714844 L 2.499990701675415 346.5099182128906 C 2.622150421142578 344.54443359375 3.590576171875 328.7252807617188 4.552402496337891 306.1568908691406 C 5.490814208984375 284.1210632324219 6.609402656555176 251.0449981689453 6.609402656555176 218.6091156005859 C 6.609402656555176 200.693115234375 6.252520084381104 171.3650054931641 4.552167415618896 133.3887634277344 C 3.59224534034729 111.9517288208008 2.626102209091187 97.25471496582031 2.499990701675415 95.36793518066406 L 2.499990701675415 49.99953079223633 C 2.499990701675415 43.58641052246094 3.755578994750977 37.36623382568359 6.231873035430908 31.51176452636719 C 8.62375545501709 25.85617637634277 12.04899120330811 20.7761173248291 16.41257858276367 16.41258811950684 C 20.77552032470703 12.04958820343018 25.8555793762207 8.624353408813477 31.51175498962402 6.231941223144531 C 36.7786979675293 4.004058837890625 42.35881423950195 2.76094126701355 48.09716796875 2.537117719650269 L 48.85550308227539 2.507521629333496 C 48.88754653930664 2.508081912994385 48.91958236694336 2.508671760559082 48.95158004760742 2.509294033050537 L 49.00010681152344 2.51023530960083 L 49.04863739013672 2.509294033050537 C 49.08095932006836 2.508665323257446 49.11330413818359 2.508070230484009 49.14567184448242 2.507504940032959 L 49.90293121337891 2.53705883026123 C 55.64122772216797 2.76094126701355 61.22140121459961 4.004058837890625 66.48828125 6.231882572174072 C 72.14346313476562 8.623529434204102 77.22386932373047 12.04888248443604 81.58863830566406 16.41276550292969 C 85.95057678222656 20.77470588684082 89.37586975097656 25.85488319396973 91.7691650390625 31.51194190979004 C 94.24475860595703 37.36676406860352 95.50010681152344 43.58700180053711 95.50010681152344 49.99953079223633 L 95.50010681152344 95.36793518066406 C 95.37400054931641 97.25471496582031 94.40785217285156 111.9517288208008 93.44792938232422 133.3887634277344 C 91.74758148193359 171.3650054931641 91.39069366455078 200.693115234375 91.39069366455078 218.6091156005859 C 91.39069366455078 251.0449981689453 92.50928497314453 284.1210632324219 93.44763946533203 306.1567687988281 C 94.40952301025391 328.7252807617188 95.37794494628906 344.54443359375 95.50010681152344 346.5099182128906 L 95.50010681152344 399.9996032714844 C 95.50010681152344 406.4127197265625 94.24475860595703 412.6332397460938 91.76898956298828 418.4884643554688 C 89.37586975097656 424.1450500488281 85.95063781738281 429.2252502441406 81.58846282958984 433.5874633789062 C 77.22386932373047 437.9511108398438 72.14346313476562 441.37646484375 66.4884033203125 443.7681274414062 C 61.22052001953125 445.9964599609375 55.64057922363281 447.2393493652344 49.90328598022461 447.4623413085938 L 49.14627838134766 447.4917907714844 Z" stroke="none"/><path d="M 48.88044357299805 444.9908752441406 C 48.88824844360352 444.99072265625 48.89606094360352 444.9906005859375 48.90386199951172 444.9904479980469 L 49.00042343139648 444.9885559082031 L 49.09698867797852 444.9904479980469 C 49.10458755493164 444.9905700683594 49.11221694946289 444.99072265625 49.11981964111328 444.9908752441406 L 49.80623626708984 444.9641723632812 C 55.24079895019531 444.7529907226562 60.52567291259766 443.575927734375 65.51461029052734 441.4655151367188 C 70.87161254882812 439.2000122070312 75.68492126464844 435.9545593261719 79.82061004638672 431.8197631835938 C 83.95404815673828 427.6862487792969 87.19948577880859 422.8731384277344 89.46636199951172 417.5148620605469 C 91.81117248535156 411.9693603515625 93.00011444091797 406.0763854980469 93.00011444091797 399.9996337890625 L 93.00011444091797 346.5873107910156 C 92.8580322265625 344.2962036132812 91.90245056152344 328.6121826171875 90.94992828369141 306.26318359375 C 90.01055145263672 284.2040100097656 88.89067077636719 251.0904388427734 88.89067077636719 218.609130859375 C 88.89067077636719 200.6678161621094 89.248046875 171.2998199462891 90.95042419433594 133.2769317626953 C 91.89999389648438 112.0715179443359 92.85230255126953 97.50218963623047 93.00011444091797 95.28456878662109 L 93.00011444091797 49.9995002746582 C 93.00011444091797 43.92331314086914 91.81117248535156 38.03068923950195 89.46673583984375 32.48612594604492 C 87.19942474365234 27.12687492370605 83.95404815673828 22.31374931335449 79.82098388671875 18.18068695068359 C 75.68505096435547 14.04556274414062 70.87167358398438 10.80012512207031 65.51435852050781 8.534375190734863 C 60.52623748779297 6.424499988555908 55.24105072021484 5.247187614440918 49.80548858642578 5.035124778747559 L 49.1198616027832 5.008370876312256 C 49.11215591430664 5.008516788482666 49.10444259643555 5.008663177490234 49.09673690795898 5.008812427520752 L 49.0001106262207 5.010687351226807 L 48.90348815917969 5.008812427520752 C 48.89615249633789 5.008670330047607 48.88880920410156 5.008531093597412 48.88147354125977 5.008392333984375 L 48.19454956054688 5.035187721252441 C 42.75904846191406 5.247250080108643 37.47380065917969 6.424562454223633 32.48579788208008 8.534375190734863 C 27.12748718261719 10.80081272125244 22.31448745727539 14.04618740081787 18.18036270141602 18.18037414550781 C 14.0455493927002 22.31512451171875 10.80023670196533 27.1280632019043 8.534424781799316 32.48581314086914 C 6.189112186431885 38.03031158447266 4.999987125396729 43.92281341552734 4.999987125396729 49.9995002746582 L 4.999987125396729 95.28456878662109 C 5.147793769836426 97.50218963623047 6.100101947784424 112.0715255737305 7.049674510955811 133.2769927978516 C 8.752049446105957 171.2998199462891 9.109424591064453 200.6678161621094 9.109424591064453 218.609130859375 C 9.109424591064453 251.0904388427734 7.98954963684082 284.2040100097656 7.050112247467041 306.2633666992188 C 6.097647666931152 328.6121826171875 5.142065525054932 344.2962036132812 4.999987125396729 346.5873107910156 L 4.999987125396729 399.9996337890625 C 4.999987125396729 406.0768737792969 6.189112186431885 411.9696960449219 8.534549713134766 417.5145568847656 C 10.80023670196533 422.8719482421875 14.0455493927002 427.6848754882812 18.18029975891113 431.8197021484375 C 22.3151741027832 435.9544982910156 27.128173828125 439.1998901367188 32.48567581176758 441.465576171875 C 37.47480010986328 443.5758056640625 42.75986099243164 444.7528686523438 48.19398880004883 444.9641723632812 L 48.88044357299805 444.9908752441406 M 50.00042343139648 450 L 49.99861145019531 449.9991149902344 C 49.66598892211914 449.9994506835938 49.33236312866211 449.9959106445312 49.00042343139648 449.989501953125 C 48.67036056518555 449.9958801269531 48.33973693847656 449.9991149902344 48.00867462158203 449.9991149902344 C 48.00598526000977 449.9991149902344 48.00417327880859 449.9991149902344 48.00242614746094 449.9991149902344 L 48.00242614746094 450 L 47.99967575073242 450 L 47.99967575073242 449.96044921875 C 41.95636367797852 449.7254333496094 36.0916748046875 448.4196166992188 30.53792381286621 446.0706176757812 C 24.58348655700684 443.5524291992188 19.23661231994629 439.9469909667969 14.64479923248291 435.3552551269531 C 10.05298709869385 430.7633666992188 6.447612285614014 425.41650390625 3.929424524307251 419.4621276855469 C 1.322112083435059 413.2980041503906 -1.29089357869816e-05 406.7496337890625 -1.29089357869816e-05 399.9996337890625 L -1.29089357869816e-05 346.4324951171875 C 0.009924591518938541 346.2705078125 1.036799550056458 329.9328002929688 2.054674625396729 306.0504455566406 C 2.991612195968628 284.0498657226562 4.109424591064453 251.0208129882812 4.109424591064453 218.609130859375 C 4.109424591064453 200.7188720703125 3.752987146377563 171.4320068359375 2.054674625396729 133.5006256103516 C 1.03767454624176 110.7900009155273 0.009924591518938541 95.60162353515625 -1.29089357869816e-05 95.45130920410156 L -1.29089357869816e-05 49.9995002746582 C -1.29089357869816e-05 43.2495002746582 1.322112083435059 36.70199966430664 3.929424524307251 30.53793716430664 C 6.447612285614014 24.58349990844727 10.05298709869385 19.23662567138672 14.64479923248291 14.64481258392334 C 19.23661231994629 10.05300045013428 24.58442497253418 6.447625160217285 30.53792381286621 3.929374933242798 C 36.09098815917969 1.580562472343445 41.95636367797852 0.2747499942779541 47.99967575073242 0.0390000008046627 L 47.99967575073242 0 C 48.3338623046875 0 48.66698837280273 0.003312499960884452 49.0001106262207 0.009750000201165676 C 49.33323669433594 0.003312499960884452 49.66629791259766 0 50.00042343139648 0 L 50.00042343139648 0.03893750160932541 C 56.04423522949219 0.2747499942779541 61.90911102294922 1.580562472343445 67.46217346191406 3.929374933242798 C 73.41661071777344 6.447625160217285 78.76348876953125 10.05300045013428 83.35617828369141 14.64481258392334 C 87.94799041748047 19.23662567138672 91.552490234375 24.58349990844727 94.07160949707031 30.53793716430664 C 96.67798614501953 36.70199966430664 98.00011444091797 43.2495002746582 98.00011444091797 49.9995002746582 L 98.00011444091797 95.45130920410156 C 97.99017333984375 95.60162353515625 96.96242523193359 110.7900009155273 95.94542694091797 133.5006256103516 C 94.24710845947266 171.4320068359375 93.89067077636719 200.7188720703125 93.89067077636719 218.609130859375 C 93.89067077636719 251.0208129882812 95.00848388671875 284.0498657226562 95.94542694091797 306.0504455566406 C 96.96330261230469 329.9328002929688 97.99017333984375 346.2705078125 98.00011444091797 346.4324951171875 L 98.00011444091797 399.9996337890625 C 98.00011444091797 406.7496337890625 96.67798614501953 413.2980041503906 94.07160949707031 419.4621276855469 C 91.552490234375 425.41650390625 87.94799041748047 430.7633666992188 83.35617828369141 435.3552551269531 C 78.76348876953125 439.9469909667969 73.41661071777344 443.5524291992188 67.46217346191406 446.0706176757812 C 61.9089241027832 448.4197387695312 56.04367446899414 449.7255554199219 50.00042343139648 449.96044921875 L 50.00042343139648 450 Z" stroke="none" fill="#707070"/></g><g transform="translate(1 8)"><circle cx="3" cy="3" r="3" transform="translate(828 391)" fill="#707070"/><circle cx="3" cy="3" r="3" transform="translate(828 406)" fill="#707070"/><circle cx="3" cy="3" r="3" transform="translate(828 421)" fill="#707070"/><circle cx="3" cy="3" r="3" transform="translate(849 421)" fill="#707070"/><circle cx="3" cy="3" r="3" transform="translate(849 406)" fill="#707070"/><circle cx="3" cy="3" r="3" transform="translate(849 391)" fill="#707070"/><g transform="translate(0 197)"><circle cx="3" cy="3" r="3" transform="translate(828 391)" fill="#707070"/><circle cx="3" cy="3" r="3" transform="translate(828 406)" fill="#707070"/><circle cx="3" cy="3" r="3" transform="translate(828 421)" fill="#707070"/><circle cx="3" cy="3" r="3" transform="translate(849 421)" fill="#707070"/><circle cx="3" cy="3" r="3" transform="translate(849 406)" fill="#707070"/><circle cx="3" cy="3" r="3" transform="translate(849 391)" fill="#707070"/></g></g></g></svg>